<svg width="492" height="227" viewBox="0 0 492 227" fill="none" xmlns="http://www.w3.org/2000/svg">
<path d="M95.245 187.501H79.765L75.949 198.661H66.085L84.229 147.901H91.501L109.645 198.661H99.277L95.245 187.501ZM82.285 179.581H93.085L89.341 168.349L87.829 160.429H87.469L85.957 168.421L82.285 179.581ZM113.783 148.261H123.143V165.541H123.431C124.439 164.389 125.735 163.477 127.319 162.805C128.903 162.133 130.655 161.797 132.575 161.797C136.895 161.797 140.183 163.285 142.439 166.261C144.743 169.189 145.895 173.677 145.895 179.725C145.895 186.205 144.287 191.125 141.071 194.485C137.903 197.845 133.535 199.525 127.967 199.525C124.895 199.525 122.087 199.261 119.543 198.733C116.999 198.253 115.079 197.701 113.783 197.077V148.261ZM129.839 169.717C128.111 169.717 126.695 170.173 125.591 171.085C124.535 171.949 123.719 173.221 123.143 174.901V190.597C123.911 190.981 124.727 191.245 125.591 191.389C126.503 191.533 127.463 191.605 128.471 191.605C131.015 191.605 132.935 190.693 134.231 188.869C135.575 186.997 136.247 184.045 136.247 180.013C136.247 173.149 134.111 169.717 129.839 169.717ZM167.288 188.725C167.288 187.765 166.88 186.997 166.064 186.421C165.248 185.845 164.24 185.317 163.04 184.837C161.84 184.357 160.52 183.877 159.08 183.397C157.64 182.869 156.32 182.173 155.12 181.309C153.92 180.397 152.912 179.269 152.096 177.925C151.28 176.533 150.872 174.757 150.872 172.597C150.872 169.045 151.928 166.333 154.04 164.461C156.152 162.589 159.2 161.653 163.184 161.653C165.92 161.653 168.392 161.941 170.6 162.517C172.808 163.093 174.536 163.741 175.784 164.461L173.696 171.229C172.592 170.797 171.2 170.341 169.52 169.861C167.84 169.381 166.136 169.141 164.408 169.141C161.624 169.141 160.232 170.221 160.232 172.381C160.232 173.245 160.64 173.941 161.456 174.469C162.272 174.997 163.28 175.501 164.48 175.981C165.68 176.413 167 176.893 168.44 177.421C169.88 177.949 171.2 178.645 172.4 179.509C173.6 180.325 174.608 181.405 175.424 182.749C176.24 184.093 176.648 185.821 176.648 187.933C176.648 191.581 175.472 194.461 173.12 196.573C170.816 198.637 167.336 199.669 162.68 199.669C160.136 199.669 157.736 199.333 155.48 198.661C153.272 198.037 151.472 197.293 150.08 196.429L152.672 189.445C153.776 190.069 155.24 190.693 157.064 191.317C158.888 191.893 160.76 192.181 162.68 192.181C164.072 192.181 165.176 191.917 165.992 191.389C166.856 190.861 167.288 189.973 167.288 188.725ZM181.031 180.661C181.031 174.565 182.519 169.885 185.495 166.621C188.471 163.309 192.647 161.653 198.023 161.653C200.903 161.653 203.399 162.109 205.511 163.021C207.623 163.933 209.375 165.229 210.767 166.909C212.159 168.541 213.191 170.533 213.863 172.885C214.583 175.237 214.943 177.829 214.943 180.661C214.943 186.757 213.455 191.461 210.479 194.773C207.551 198.037 203.399 199.669 198.023 199.669C195.143 199.669 192.647 199.213 190.535 198.301C188.423 197.389 186.647 196.117 185.207 194.485C183.815 192.805 182.759 190.789 182.039 188.437C181.367 186.085 181.031 183.493 181.031 180.661ZM190.679 180.661C190.679 182.245 190.823 183.709 191.111 185.053C191.399 186.397 191.831 187.573 192.407 188.581C192.983 189.589 193.727 190.381 194.639 190.957C195.599 191.485 196.727 191.749 198.023 191.749C200.471 191.749 202.295 190.861 203.495 189.085C204.695 187.309 205.295 184.501 205.295 180.661C205.295 177.349 204.743 174.685 203.639 172.669C202.535 170.605 200.663 169.573 198.023 169.573C195.719 169.573 193.919 170.437 192.623 172.165C191.327 173.893 190.679 176.725 190.679 180.661ZM231.079 186.565C231.079 188.245 231.295 189.469 231.727 190.237C232.159 191.005 232.855 191.389 233.815 191.389C234.391 191.389 234.943 191.341 235.471 191.245C236.047 191.149 236.743 190.933 237.559 190.597L238.567 197.941C237.799 198.325 236.623 198.709 235.039 199.093C233.455 199.477 231.823 199.669 230.143 199.669C227.407 199.669 225.319 199.045 223.879 197.797C222.439 196.501 221.719 194.389 221.719 191.461V148.261H231.079V186.565ZM251.595 162.661V183.109C251.595 186.037 251.931 188.149 252.603 189.445C253.323 190.741 254.691 191.389 256.707 191.389C258.483 191.389 259.947 190.861 261.099 189.805C262.299 188.749 263.187 187.453 263.763 185.917V162.661H273.123V187.717C273.123 189.685 273.219 191.629 273.411 193.549C273.603 195.421 273.891 197.125 274.275 198.661H267.219L265.563 193.333H265.275C264.171 195.157 262.635 196.669 260.667 197.869C258.699 199.069 256.371 199.669 253.683 199.669C251.859 199.669 250.227 199.429 248.787 198.949C247.347 198.469 246.147 197.677 245.187 196.573C244.227 195.469 243.483 193.981 242.955 192.109C242.475 190.237 242.235 187.885 242.235 185.053V162.661H251.595ZM277.593 162.661H282.561V155.893L291.921 153.229V162.661H300.705V170.581H291.921V184.405C291.921 186.901 292.161 188.701 292.641 189.805C293.169 190.861 294.129 191.389 295.521 191.389C296.481 191.389 297.297 191.293 297.969 191.101C298.689 190.909 299.481 190.621 300.345 190.237L302.001 197.437C300.705 198.061 299.193 198.589 297.465 199.021C295.737 199.453 293.985 199.669 292.209 199.669C288.897 199.669 286.449 198.829 284.865 197.149C283.329 195.421 282.561 192.613 282.561 188.725V170.581H277.593V162.661ZM334.887 195.565C333.447 196.717 331.479 197.701 328.983 198.517C326.535 199.285 323.919 199.669 321.135 199.669C315.327 199.669 311.079 197.989 308.391 194.629C305.703 191.221 304.359 186.565 304.359 180.661C304.359 174.325 305.871 169.573 308.895 166.405C311.919 163.237 316.167 161.653 321.639 161.653C323.463 161.653 325.239 161.893 326.967 162.373C328.695 162.853 330.231 163.645 331.575 164.749C332.919 165.853 333.999 167.341 334.815 169.213C335.631 171.085 336.039 173.413 336.039 176.197C336.039 177.205 335.967 178.285 335.823 179.437C335.727 180.589 335.559 181.789 335.319 183.037H313.719C313.863 186.061 314.631 188.341 316.023 189.877C317.463 191.413 319.767 192.181 322.935 192.181C324.903 192.181 326.655 191.893 328.191 191.317C329.775 190.693 330.975 190.069 331.791 189.445L334.887 195.565ZM321.495 169.141C319.047 169.141 317.223 169.885 316.023 171.373C314.871 172.813 314.175 174.757 313.935 177.205H327.327C327.519 174.613 327.111 172.621 326.103 171.229C325.143 169.837 323.607 169.141 321.495 169.141ZM350.238 199.105C348.092 199.105 346.316 198.71 344.91 197.921C343.529 197.107 342.468 196.058 341.728 194.776C341.013 193.493 340.569 192.149 340.396 190.743H343.985C344.256 192.321 344.935 193.604 346.02 194.591C347.105 195.577 348.511 196.095 350.238 196.145C351.323 196.145 352.31 195.972 353.198 195.627C354.111 195.257 354.838 194.751 355.381 194.11C355.924 193.444 356.183 192.667 356.158 191.779C356.158 190.767 355.887 189.978 355.344 189.411C354.801 188.843 354.086 188.399 353.198 188.079C352.335 187.758 351.373 187.487 350.312 187.265C349.251 187.018 348.191 186.747 347.13 186.451C346.069 186.155 345.095 185.748 344.207 185.23C343.344 184.712 342.641 184.009 342.098 183.121C341.555 182.208 341.284 181.024 341.284 179.569C341.284 178.311 341.592 177.127 342.209 176.017C342.85 174.907 343.825 174.019 345.132 173.353C346.439 172.662 348.104 172.317 350.127 172.317C351.533 172.317 352.779 172.539 353.864 172.983C354.974 173.427 355.911 174.019 356.676 174.759C357.465 175.474 358.057 176.263 358.452 177.127C358.871 177.99 359.106 178.841 359.155 179.68H355.714C355.591 178.94 355.307 178.237 354.863 177.571C354.419 176.905 353.778 176.362 352.939 175.943C352.125 175.499 351.101 175.277 349.868 175.277C348.955 175.277 348.092 175.437 347.278 175.758C346.464 176.078 345.798 176.547 345.28 177.164C344.787 177.78 344.54 178.52 344.54 179.384C344.54 180.37 344.811 181.147 345.354 181.715C345.897 182.282 346.6 182.726 347.463 183.047C348.351 183.367 349.325 183.651 350.386 183.898C351.447 184.144 352.507 184.416 353.568 184.712C354.629 185.008 355.591 185.415 356.454 185.933C357.342 186.451 358.057 187.154 358.6 188.042C359.143 188.905 359.414 190.04 359.414 191.446C359.414 193.123 359.019 194.541 358.23 195.701C357.441 196.835 356.355 197.686 354.974 198.254C353.617 198.821 352.039 199.105 350.238 199.105ZM372.33 199.142C370.776 199.142 369.321 198.759 367.964 197.995C366.632 197.205 365.559 196.083 364.745 194.628C363.931 193.172 363.524 191.458 363.524 189.485C363.524 187.462 363.931 185.723 364.745 184.268C365.559 182.812 366.632 181.69 367.964 180.901C369.321 180.111 370.776 179.717 372.33 179.717C373.958 179.717 375.426 180.148 376.733 181.012C378.041 181.85 379.015 183.034 379.656 184.564L376.844 185.674C376.45 184.736 375.858 183.984 375.068 183.417C374.304 182.825 373.366 182.529 372.256 182.529C370.998 182.529 369.95 182.837 369.111 183.454C368.297 184.046 367.681 184.86 367.261 185.896C366.842 186.932 366.632 188.091 366.632 189.374C366.632 190.656 366.842 191.828 367.261 192.889C367.681 193.925 368.297 194.763 369.111 195.405C369.95 196.021 370.998 196.33 372.256 196.33C373.366 196.33 374.304 196.046 375.068 195.479C375.858 194.887 376.45 194.122 376.844 193.185L379.656 194.295C379.015 195.824 378.028 197.02 376.696 197.884C375.389 198.722 373.934 199.142 372.33 199.142ZM391.538 199.105C389.935 199.105 388.517 198.722 387.283 197.958C386.05 197.168 385.088 196.058 384.397 194.628C383.707 193.172 383.361 191.433 383.361 189.411C383.361 187.314 383.719 185.55 384.434 184.12C385.15 182.689 386.136 181.604 387.394 180.864C388.677 180.099 390.12 179.717 391.723 179.717C392.809 179.717 393.746 179.914 394.535 180.309C395.325 180.703 395.978 181.209 396.496 181.826C397.039 182.442 397.434 183.096 397.68 183.787V180.161H400.64V198.661H397.569V195.109C397.323 195.947 396.879 196.675 396.237 197.292C395.621 197.884 394.893 198.34 394.054 198.661C393.24 198.957 392.402 199.105 391.538 199.105ZM391.982 196.293C393.166 196.293 394.165 195.984 394.979 195.368C395.818 194.726 396.447 193.888 396.866 192.852C397.31 191.816 397.532 190.669 397.532 189.411C397.532 187.363 397.039 185.698 396.052 184.416C395.09 183.133 393.697 182.492 391.871 182.492C390.663 182.492 389.651 182.8 388.837 183.417C388.048 184.009 387.456 184.823 387.061 185.859C386.667 186.895 386.469 188.054 386.469 189.337C386.469 190.619 386.667 191.791 387.061 192.852C387.456 193.888 388.06 194.726 388.874 195.368C389.713 195.984 390.749 196.293 391.982 196.293ZM407.242 198.661V180.161H410.35V183.639C410.473 183.195 410.757 182.664 411.201 182.048C411.645 181.431 412.299 180.888 413.162 180.42C414.025 179.951 415.148 179.717 416.529 179.717C418.33 179.717 419.81 180.296 420.969 181.456C422.153 182.615 422.745 184.305 422.745 186.525V198.661H419.637V186.969C419.637 185.365 419.255 184.231 418.49 183.565C417.725 182.874 416.726 182.529 415.493 182.529C413.791 182.529 412.508 183.108 411.645 184.268C410.782 185.427 410.35 186.895 410.35 188.671V198.661H407.242Z" fill="white"/>
<path d="M288.586 9.58344C287.915 9.03704 287.131 8.64896 286.291 8.44774C285.451 8.24652 284.578 8.23728 283.734 8.42065C277.561 9.72262 271.188 9.73925 265.009 8.46937C258.829 7.19955 252.974 4.67015 247.802 1.03697C246.835 0.3618 245.686 0 244.509 0C243.333 0 242.184 0.3618 241.217 1.03697C236.045 4.67015 230.189 7.19955 224.01 8.46937C217.83 9.73925 211.458 9.72262 205.285 8.42065C204.441 8.23728 203.567 8.24652 202.727 8.44774C201.888 8.64896 201.103 9.03704 200.432 9.58344C199.762 10.1306 199.222 10.822 198.852 11.6067C198.482 12.3915 198.292 13.2497 198.295 14.1183V57.432C198.29 65.768 200.263 73.9842 204.052 81.3969C207.84 88.8097 213.333 95.2039 220.073 100.048L241.159 115.164C242.137 115.865 243.308 116.242 244.509 116.242C245.71 116.242 246.881 115.865 247.86 115.164L268.945 100.048C275.686 95.2039 281.179 88.8097 284.967 81.3969C288.755 73.9842 290.729 65.768 290.724 57.432V14.1183C290.727 13.2497 290.536 12.3915 290.166 11.6067C289.797 10.822 289.256 10.1306 288.586 9.58344ZM279.17 57.432C279.175 63.9133 277.641 70.3017 274.697 76.0656C271.753 81.8301 267.484 86.8033 262.244 90.5713L244.509 103.304L226.775 90.5713C221.535 86.8033 217.266 81.8301 214.322 76.0656C211.378 70.3017 209.844 63.9133 209.849 57.432V20.8043C221.959 21.8475 234.088 19.0195 244.509 12.723C254.931 19.0195 267.06 21.8475 279.17 20.8043V57.432ZM253.406 44.1181L237.866 59.8157L232.725 54.5831C231.637 53.4884 230.162 52.8733 228.623 52.8733C227.085 52.8733 225.609 53.4884 224.522 54.5831C223.434 55.6779 222.823 57.1628 222.823 58.711C222.823 60.2593 223.434 61.7441 224.522 62.8389L233.764 72.1412C234.302 72.6859 234.941 73.1185 235.644 73.4138C236.348 73.7092 237.103 73.8609 237.866 73.8609C238.629 73.8609 239.384 73.7092 240.088 73.4138C240.791 73.1185 241.43 72.6859 241.968 72.1412L261.84 52.3157C262.928 51.2209 263.539 49.7361 263.539 48.1878C263.539 46.6396 262.928 45.1548 261.84 44.06C260.752 42.9652 259.277 42.3502 257.738 42.3502C256.2 42.3502 254.724 42.9652 253.637 44.06L253.406 44.1181Z" fill="white"/>
<path d="M166.988 81.2204V66.6901C166.988 65.2079 167.577 63.7865 168.626 62.7384C169.674 61.6903 171.096 61.1016 172.579 61.1016C174.061 61.1016 175.483 61.6903 176.532 62.7384C177.58 63.7865 178.169 65.2079 178.169 66.6901V89.0444" stroke="white" stroke-width="4" stroke-linecap="round" stroke-linejoin="round"/>
<path d="M155.807 83.4555V62.2189C155.807 60.7368 156.396 59.3153 157.445 58.2672C158.493 57.2192 159.915 56.6304 161.398 56.6304C162.881 56.6304 164.302 57.2192 165.351 58.2672C166.399 59.3153 166.988 60.7368 166.988 62.2189V81.2201" stroke="white" stroke-width="4" stroke-linecap="round" stroke-linejoin="round"/>
<path d="M166.988 100.222C166.988 97.2573 168.166 94.4144 170.263 92.3182C172.36 90.2223 175.204 89.0446 178.169 89.0446V83.4561C178.169 81.9738 178.758 80.5524 179.807 79.5044C180.855 78.4563 182.277 77.8675 183.76 77.8675C185.242 77.8675 186.664 78.4563 187.713 79.5044C188.761 80.5524 189.35 81.9738 189.35 83.4561V94.6332C189.35 100.562 186.994 106.248 182.8 110.44C178.607 114.632 172.919 116.987 166.988 116.987C161.058 116.987 155.37 114.632 151.176 110.44C146.982 106.248 144.626 100.562 144.626 94.6332V73.3967C144.626 71.9145 145.215 70.493 146.264 69.4449C147.312 68.3969 148.734 67.8081 150.217 67.8081C151.699 67.8081 153.121 68.3969 154.17 69.4449C155.218 70.493 155.807 71.9145 155.807 73.3967V83.4561" stroke="white" stroke-width="4" stroke-linecap="round" stroke-linejoin="round"/>
<path d="M325.012 78.2399V63.7097C325.012 62.2275 324.423 60.806 323.375 59.7579C322.326 58.7099 320.904 58.1211 319.422 58.1211C317.939 58.1211 316.517 58.7099 315.469 59.7579C314.42 60.806 313.831 62.2275 313.831 63.7097V86.0639" stroke="white" stroke-width="4" stroke-linecap="round" stroke-linejoin="round"/>
<path d="M336.193 80.4755V59.239C336.193 57.7568 335.604 56.3353 334.555 55.2872C333.507 54.2392 332.085 53.6504 330.602 53.6504C329.12 53.6504 327.698 54.2392 326.649 55.2872C325.601 56.3353 325.012 57.7568 325.012 59.239V78.2401" stroke="white" stroke-width="4" stroke-linecap="round" stroke-linejoin="round"/>
<path d="M325.012 97.2413C325.012 94.2768 323.834 91.434 321.737 89.3377C319.64 87.2418 316.797 86.0642 313.831 86.0642V80.4756C313.831 78.9934 313.242 77.572 312.194 76.5239C311.145 75.4758 309.723 74.8871 308.241 74.8871C306.758 74.8871 305.336 75.4758 304.288 76.5239C303.239 77.572 302.65 78.9934 302.65 80.4756V91.6527C302.65 97.5814 305.006 103.267 309.2 107.46C313.393 111.652 319.081 114.007 325.012 114.007C330.943 114.007 336.631 111.652 340.824 107.46C345.018 103.267 347.374 97.5814 347.374 91.6527V70.4162C347.374 68.934 346.785 67.5126 345.736 66.4645C344.688 65.4164 343.266 64.8276 341.783 64.8276C340.301 64.8276 338.879 65.4164 337.83 66.4645C336.782 67.5126 336.193 68.934 336.193 70.4162V80.4756" stroke="white" stroke-width="4" stroke-linecap="round" stroke-linejoin="round"/>
</svg>
